<svg width="240" height="240" viewBox="0 0 240 240" fill="none" xmlns="http://www.w3.org/2000/svg">
<path fill-rule="evenodd" clip-rule="evenodd" d="M105.869 40C75.6126 42.9717 47.695 56.4438 26.5912 77.9469C23.0763 81.5283 23.1461 87.2655 26.747 90.7613C30.3479 94.2571 36.1164 94.1877 39.6312 90.6063C55.4774 74.4603 75.7725 63.5971 97.9844 59.4183L105.869 40ZM132.945 58.4161L144.677 42.0062C171.198 47.4347 195.266 61.0679 213.616 81.0514C217.01 84.7468 216.749 90.4785 213.033 93.8535C209.318 97.2286 203.555 96.9688 200.161 93.2734C182.563 74.1088 158.871 61.7583 132.945 58.4161ZM96.3214 74.1072C77.9497 78.5083 61.2885 88.2088 48.3347 102.083C44.9107 105.751 45.1242 111.484 48.8116 114.89C52.499 118.295 58.2639 118.083 61.6879 114.416C74.4281 100.77 91.5559 92.1126 110.238 90.0455L96.3214 74.1072ZM138.703 92.0665L127.385 71.8039C152.475 73.9711 175.464 85.7649 191.835 104.564C195.13 108.347 194.717 114.07 190.914 117.346C187.11 120.623 181.356 120.212 178.062 116.429C167.643 104.466 153.944 96.008 138.703 92.0665ZM115.192 105.033C97.8446 106.153 81.9302 114.295 70.8943 127.431C67.6677 131.271 68.1823 136.986 72.0437 140.195C75.9051 143.404 81.651 142.892 84.8775 139.052L85.1554 138.724C92.0623 130.659 101.551 125.31 112.044 123.608L115.192 105.033ZM124.946 123.373L132.469 109.119L135.093 106.883C148.483 110.314 160.401 118.054 169.011 128.993C172.113 132.934 171.415 138.63 167.453 141.715C163.49 144.799 157.764 144.106 154.662 140.165C147.352 130.877 136.723 124.841 124.946 123.373ZM136.138 159.969C136.138 168.823 128.921 176.001 120.018 176.001C111.115 176.001 103.898 168.823 103.898 159.969C103.898 151.114 111.115 143.936 120.018 143.936C128.921 143.936 136.138 151.114 136.138 159.969Z" fill="url(#paint0_linear_31_482)"/>
<g opacity="0.3" filter="url(#filter0_f_31_482)">
<ellipse cx="126" cy="201.001" rx="75" ry="9" fill="#AFBEC9"/>
</g>
<defs>
<filter id="filter0_f_31_482" x="37.4086" y="178.41" width="177.183" height="45.1828" filterUnits="userSpaceOnUse" color-interpolation-filters="sRGB">
<feFlood flood-opacity="0" result="BackgroundImageFix"/>
<feBlend mode="normal" in="SourceGraphic" in2="BackgroundImageFix" result="shape"/>
<feGaussianBlur stdDeviation="6.7957" result="effect1_foregroundBlur_31_482"/>
</filter>
<linearGradient id="paint0_linear_31_482" x1="-2" y1="55.5" x2="57.2868" y2="196.851" gradientUnits="userSpaceOnUse">
<stop stop-color="#9DA4B1"/>
<stop offset="1" stop-color="#758090"/>
</linearGradient>
</defs>
</svg>
